<svg id="pfade" xmlns="http://www.w3.org/2000/svg" viewBox="0 0 80 80">
  <defs>
    <style>
      .cls-1 {
        fill: none;
        stroke: #ffffff;
        stroke-linecap: round;
        stroke-linejoin: round;
        stroke-width: 2px;
      }

      .cls-2 {
        fill: #ffffff;
      }
    </style>
  </defs>
  <polygon class="cls-1" points="55.958 61.438 24.042 61.438 24.042 18.605 47.125 18.605 55.958 27.521 55.958 61.438"/>
  <polygon class="cls-1" points="55.958 27.521 47.125 27.521 47.125 18.604 55.958 27.521"/>
  <g>
    <path class="cls-2" d="M33.5184,41.8835v2.5H32.0828V37.2741h2.42191a2.22252,2.22252,0,0,1,1.68209.6543,2.35354,2.35354,0,0,1,.6275,1.6993,2.20025,2.20025,0,0,1-.6201,1.6503,2.35487,2.35487,0,0,1-1.7188.6055Zm0-1.1963h.98631a.78106.78106,0,0,0,.63479-.2685,1.19008,1.19008,0,0,0,.2246-.7813,1.40971,1.40971,0,0,0-.2295-.8471.73645.73645,0,0,0-.6152-.3199h-1.001Z"/>
    <path class="cls-2" d="M38.1713,44.3835V37.2741h1.8799a2.58741,2.58741,0,0,1,1.9849.7911,3.09959,3.09959,0,0,1,.7544,2.1679v1.1524a3.11132,3.11132,0,0,1-.73979,2.1997,2.6421,2.6421,0,0,1-2.03851.7983Zm1.4356-5.9131v4.7217h.4297a1.2039,1.2039,0,0,0,1.0107-.3784,2.25074,2.25074,0,0,0,.3076-1.3062V40.2722a2.52493,2.52493,0,0,0-.2783-1.3892,1.12428,1.12428,0,0,0-.9473-.4126Z"/>
    <path class="cls-2" d="M47.8878,41.4831H45.6563v2.9004H44.2208V37.2741h3.9355v1.1963h-2.5v1.8213h2.2315Z"/>
  </g>
</svg>
