<svg id="Inhalt" xmlns="http://www.w3.org/2000/svg" viewBox="0 0 80 80"><defs><style>.cls-1{fill:none;stroke:#fff;stroke-linecap:round;stroke-linejoin:round;stroke-width:2px;}</style></defs><title>icons_dimmer-bulb_active</title><path class="cls-1" d="M18.26,34.74s3.41-8.55,14.35-8.55C42,26.19,45,34.74,45,34.74H61.74S59.28,18.39,40,18.39C21.67,18.39,18.26,34.74,18.26,34.74Z"/><path class="cls-1" d="M24.83,46.47a8.41,8.41,0,0,1,0-12.27,9.37,9.37,0,0,1,12.83,0,8.41,8.41,0,0,1,0,12.27"/><path class="cls-1" d="M35.67,52.07c0-1.67.66-4.33,2-5.6"/><path class="cls-1" d="M26.82,51.07a6.34,6.34,0,0,0-2-4.6"/><line class="cls-1" x1="26.82" y1="55.09" x2="35.67" y2="52.07"/><line class="cls-1" x1="26.82" y1="58.92" x2="35.67" y2="55.9"/><line class="cls-1" x1="31.99" y1="60.99" x2="30.49" y2="61.5"/></svg>