<svg id="pfade" xmlns="http://www.w3.org/2000/svg" viewBox="0 0 80 80">
  <defs>
    <style>
      .cls-1, .cls-2 {
        fill: none;
        stroke: #ffffff;
        stroke-linecap: round;
        stroke-linejoin: round;
      }

      .cls-1 {
        stroke-width: 2px;
      }
    </style>
  </defs>
  <path class="cls-1" d="M18.5,32.678H45.23358a7.0725,7.0725,0,1,1,0,14.145H18.49978"/>
  <path class="cls-2" d="M32.43748,26.2168a2.64905,2.64905,0,1,1-2.6492-2.6491A2.649,2.649,0,0,1,32.43748,26.2168Z"/>
  <path class="cls-2" d="M25.17408,26.2168A2.649,2.649,0,1,1,22.525,23.5677,2.64866,2.64866,0,0,1,25.17408,26.2168Z"/>
  <path class="cls-2" d="M39.70118,26.2168A2.64905,2.64905,0,1,1,37.052,23.5677,2.64868,2.64868,0,0,1,39.70118,26.2168Z"/>
  <path class="cls-2" d="M46.96448,26.2168a2.649,2.649,0,1,1-2.6489-2.6491A2.64868,2.64868,0,0,1,46.96448,26.2168Z"/>
  <path class="cls-2" d="M18.5,37.09H44.31558a2.649,2.649,0,0,1,0,5.2979H18.5"/>
  <path class="cls-2" d="M61.55238,39.7507a2.649,2.649,0,1,1-2.6491-2.6488A2.64913,2.64913,0,0,1,61.55238,39.7507Z"/>
  <path class="cls-2" d="M59.50778,32.7237a2.64905,2.64905,0,1,1-2.6489-2.649A2.64867,2.64867,0,0,1,59.50778,32.7237Z"/>
  <path class="cls-2" d="M54.20968,27.7064a2.64905,2.64905,0,1,1-2.6489-2.6493A2.64883,2.64883,0,0,1,54.20968,27.7064Z"/>
  <path class="cls-2" d="M32.43748,53.2867a2.64905,2.64905,0,1,0-2.6492,2.6492A2.64952,2.64952,0,0,0,32.43748,53.2867Z"/>
  <path class="cls-2" d="M25.17408,53.2867A2.649,2.649,0,1,0,22.525,55.9359,2.64917,2.64917,0,0,0,25.17408,53.2867Z"/>
  <path class="cls-2" d="M39.70118,53.2867A2.64905,2.64905,0,1,0,37.052,55.9359,2.64919,2.64919,0,0,0,39.70118,53.2867Z"/>
  <path class="cls-2" d="M46.96448,53.2867a2.649,2.649,0,1,0-2.6489,2.6492A2.6492,2.6492,0,0,0,46.96448,53.2867Z"/>
  <path class="cls-2" d="M59.50778,46.7795a2.64905,2.64905,0,1,0-2.6489,2.6492A2.64867,2.64867,0,0,0,59.50778,46.7795Z"/>
  <path class="cls-2" d="M54.20968,51.7971a2.64905,2.64905,0,1,0-2.6489,2.6493A2.64862,2.64862,0,0,0,54.20968,51.7971Z"/>
</svg>
